<svg height="1500" width="16" xmlns="http://www.w3.org/2000/svg">
    <style>
        polygon, path { fill: #999 }
    </style>
    <g transform="translate(0,3)">
        <g>
            <polygon transform="scale(12), translate(0.2, 0)" points="0.35,0 0.65,0 0.65,0.35 1,0.35 1,0.65 0.65,0.65 0.65,1 0.35,1 0.35,0.65 0,0.65 0,0.35 0.35,0.35"/>
        </g>
        <g transform="translate(0, 200)">
            <polygon transform="scale(15), translate(0,0.1)" points="0.15,0 0.5,0.31 0.85,0 1,0.15 0.5,0.6 0,0.15"/>
        </g>
        <g transform="translate(0, 400)">
            <path transform="scale(20), translate(0,-0.1)" fill-rule="nonzero" d="M0.112363 0.0913508l0.0178408 0 0 -0.0476617c0,-0.0237373 0.0192482,-0.0429855 0.0429944,-0.0429855 0.0237462,0 0.0429944,0.0192482 0.0429944,0.0429855l0 0.0476617 0.0892042 0 0 -0.0476617c0,-0.0237373 0.0192482,-0.0429855 0.0429944,-0.0429855 0.0237373,0 0.0429855,0.0192482 0.0429855,0.0429855l0 0.0476617 0.0892131 0 0 -0.0476617c0,-0.0237373 0.0192482,-0.0429855 0.0429944,-0.0429855 0.0237373,0 0.0429855,0.0192482 0.0429855,0.0429855l0 0.0476617 0.0178497 0 0 -0.000169234 8.90706e-006 0 0 0.000169234c0.0308986,8.90706e-006 0.0589647,0.0126124 0.0792906,0.0329027l8.90706e-005 -8.90706e-005c0.0202279,0.0202368 0.0327869,0.0483208 0.0327958,0.0793619l0.000169234 0 0 1.78141e-005 0 0.437541 0 8.90706e-006 -0.000169234 0c0,0.0310411 -0.0125679,0.059134 -0.0328136,0.0793708 -0.0202279,0.0202368 -0.0483119,0.0327958 -0.079353,0.0328047l0 0.000169234 -1.78141e-005 0 0 -0.000169234 -0.472056 0 0 0.000169234 -8.90706e-006 0 0 -0.000169234c-0.0310411,0 -0.059134,-0.0125679 -0.0793708,-0.0328047 -0.0202368,-0.0202279 -0.0327958,-0.0483119 -0.0328047,-0.0793619l-0.000169234 0 0 -1.78141e-005 0 -0.437541 0 -8.90706e-006 0.000169234 0c0,-0.0310589 0.0125679,-0.0591429 0.0328047,-0.0793797 0.0202279,-0.0202368 0.0483119,-0.0327958 0.0793619,-0.0328047l0 -0.000169234 1.78141e-005 0 0 0.000169234zm-0.0263738 0.17236l0.524804 0 0 -0.0601672 0 -1.78141e-005 0.000169234 0c0,-0.00708111 -0.00304621,-0.0136634 -0.0079451,-0.0185712l0 -0.000169234c-0.00480981,-0.0048009 -0.0113921,-0.00778477 -0.018589,-0.00778477l0 0.000169234 -8.90706e-006 0 0 -0.000169234 -0.0178497 0 0 0.042549 -0.0859798 0 0 -0.042549 -0.0892131 0 0 0.042549 -0.0859798 0 0 -0.042549 -0.0892042 0 0 0.042549 -0.0859887 0 0 -0.042549 -0.0178408 0 0 0.000169234 -1.78141e-005 0 0 -0.000169234c-0.00708111,0 -0.0136723,0.00304621 -0.0185712,0.0079451 -0.00490779,0.00490779 -0.007954,0.011499 -0.007954,0.018589l0.000169234 0 0 8.90706e-006 0 0.0601672zm0.524804 0.0859798l-0.524804 0 0 0.291394 0 1.78141e-005 -0.000169234 0c0,0.00708111 0.00304621,0.0136634 0.007954,0.0185712 0.00490779,0.00490779 0.011499,0.007954 0.0185801,0.007954l0 -0.000169234 8.90706e-006 0 0 0.000169234 0.472056 0 0 -0.000169234 1.78141e-005 0 0 0.000169234c0.0070722,0 0.0136634,-0.00305512 0.0185623,-0.007954 0.00490779,-0.00490779 0.00796291,-0.011499 0.00796291,-0.0185801l-0.000169234 0 0 -8.90706e-006 0 -0.291394z"/>
        </g>
    </g>
</svg>